<?xml version="1.0" encoding="utf-8"?>
<!-- Generator: Adobe Illustrator 24.3.0, SVG Export Plug-In . SVG Version: 6.00 Build 0)  -->
<svg version="1.1" id="Layer_1" xmlns="http://www.w3.org/2000/svg" xmlns:xlink="http://www.w3.org/1999/xlink" x="0px" y="0px"
	 viewBox="0 0 180.4 162" style="enable-background:new 0 0 180.4 162;" xml:space="preserve">
<style type="text/css">
	.st0{fill:#0F568D;}
	.st1{fill:#236CB4;}
	.st2{fill:#0097C5;}
	.st3{fill:#00ADEE;}
	.st4{fill:#9F2272;}
	.st5{fill:#CC1484;}
	.st6{fill:#EA088B;}
</style>
<g>
	<path class="st0" d="M121.2,40.9v119c0,0.5-0.4,0.9-0.9,0.9H56.9l16.9-31.5h14.9c0.5,0,0.9-0.4,0.9-1V100L121.2,40.9z"/>
	<g>
		
			<image style="overflow:visible;opacity:0.1;" width="69" height="63" xlink:href="C0F11014D6FF8E8A.png"  transform="matrix(1 0 0 1 13 105)">
		</image>
		<g>
			<path class="st1" d="M61.8,129.4h12.1l-16.9,31.5h-6c-13.6,0-24.9-3.2-33.3-9.1L42.1,110c0,0.3,0,0.5,0,0.8
				C42.1,122.8,49.1,129.4,61.8,129.4z"/>
		</g>
	</g>
	<path class="st1" d="M121.2,2v39l-31.7,59v-7.4c0-0.6-0.4-1-0.9-1H62.2c-4.1,0-7.6,0.8-10.6,2.2l19.7-33.5h17.5
		c0.5,0,0.9-0.4,0.9-0.9V32.7c0-0.5-0.4-0.9-0.9-0.9H88L106,1h14.4C120.8,1,121.2,1.4,121.2,2z"/>
	<g>
		
			<image style="overflow:visible;opacity:0.1;" width="125" height="169" xlink:href="C0F11014D6FF8E8E.png"  transform="matrix(1 0 0 1 -3 -4)">
		</image>
		<g>
			<path class="st2" d="M52.1,46.1c0,9.2,5.7,14.1,16.5,14.1h2.9L51.8,93.7c-5.9,2.9-9.4,8.5-9.6,16.3l-24.5,41.8
				c-10.4-7.2-16.5-18.6-16.9-32.9l19.4-33.4c3.7-2.5,7.7-4.5,11.7-5.9c0.8-0.3,0.8-1.4,0.1-1.7c-2-0.9-3.8-1.9-5.6-3.1L69,1h37
				l-18,30.7H68.5C57.9,31.8,52.1,36.8,52.1,46.1z"/>
		</g>
	</g>
	<g>
		
			<image style="overflow:visible;opacity:0.1;" width="78" height="92" xlink:href="C0F11014D6FF8E89.png"  transform="matrix(1 0 0 1 7 -4)">
		</image>
		<g>
			<path class="st3" d="M69.1,1L26.3,74.8c-10.1-6.7-15.9-18.1-15.9-32C10.5,17,29.3,1,59.7,1H69.1z"/>
		</g>
	</g>
	<g>
		
			<image style="overflow:visible;opacity:0.1;" width="33" height="46" xlink:href="C0F11014D6FF8E8B.png"  transform="matrix(1 0 0 1 -4 80)">
		</image>
		<g>
			<path class="st3" d="M20.1,85.4L0.8,118.8c0-0.6,0-1.2,0-1.8C0.7,104.1,9.4,92.6,20.1,85.4z"/>
		</g>
	</g>
</g>
<g>
	<path class="st4" d="M159.8,61.2v29c0,0.6-0.5,1-1,1h-23l15.2-31h7.8C159.3,60.2,159.8,60.7,159.8,61.2z"/>
	<path class="st4" d="M179.7,2.1v28.7c0,0.6-0.4,1-1,1h-13.8l14.7-30.1C179.7,1.8,179.7,1.9,179.7,2.1z"/>
	<g>
		
			<image style="overflow:visible;opacity:0.1;" width="71" height="49" xlink:href="C0F11014D6FF8E88.png"  transform="matrix(1 0 0 1 124 -4)">
		</image>
		<g>
			<path class="st5" d="M179.7,1.6L179.7,1.6l-14.7,30.1h-37.6L144.1,1h34.7C179.1,1,179.5,1.3,179.7,1.6z"/>
		</g>
	</g>
	<path class="st4" d="M121.3,120.8v39c0,0.6-0.5,1-1,1h-18.6L121.3,120.8z"/>
	<g>
		
			<image style="overflow:visible;opacity:0.1;" width="80" height="137" xlink:href="C0F11014D6FF8E96.png"  transform="matrix(1 0 0 1 86 37)">
		</image>
		<g>
			<path class="st5" d="M151,60.2l-15.2,31h-13.5c-0.6,0-1,0.5-1,1v28.6l-19.6,40H90.9c-0.6,0-1-0.5-1-1v-59.5l31.4-57.5v16.4
				c0,0.6,0.4,1,1,1H151z"/>
		</g>
	</g>
	<g>
		
			<image style="overflow:visible;opacity:0.1;" width="74" height="118" xlink:href="C0F11014D6FF8E99.png"  transform="matrix(1 0 0 1 86 -4)">
		</image>
		<g>
			<path class="st6" d="M144.1,1l-16.7,30.7h-5.1c-0.6,0-1,0.5-1,1v10.1l-31.4,57.5V2.1c0-0.6,0.5-1,1-1H144.1z"/>
		</g>
	</g>
</g>
</svg>
