<svg xmlns="http://www.w3.org/2000/svg" viewBox="0 0 872.08 778.01">
<defs>
<style>.cls-1{fill:#ec008c;}.cls-2{fill:#00aeef;}.cls-3{fill:#ed1c24;stroke:#ed1c24;stroke-miterlimit:10;}</style>
</defs>
<g id="Layer_1" data-name="Layer 1"><path class="cls-1" d="M582.46,778h-143a4.92,4.92,0,0,1-4.92-4.92V4.92A4.92,4.92,0,0,1,439.46,0h427.7a4.92,4.92,0,0,1,4.92,4.92V144.57a4.92,4.92,0,0,1-4.92,4.91H592.3a4.92,4.92,0,0,0-4.92,4.92V283.13a4.92,4.92,0,0,0,4.92,4.92H770.1A4.92,4.92,0,0,1,775,293V434.13a4.92,4.92,0,0,1-4.92,4.92H592.3a4.91,4.91,0,0,0-4.92,4.91V773.09A4.92,4.92,0,0,1,582.46,778Zm-137.6-5.41h132.2a4.91,4.91,0,0,0,4.91-4.91V438.56a4.92,4.92,0,0,1,4.92-4.92h177.8a4.92,4.92,0,0,0,4.92-4.92V298.37a4.92,4.92,0,0,0-4.92-4.92H586.89a4.92,4.92,0,0,1-4.92-4.91V149a4.92,4.92,0,0,1,4.92-4.92H861.75a4.92,4.92,0,0,0,4.92-4.92V10.32a4.92,4.92,0,0,0-4.92-4.92H444.86A4.92,4.92,0,0,0,440,10.32V767.69A4.91,4.91,0,0,0,444.86,772.6Z"/><path class="cls-2" d="M244.81,778H583a4.33,4.33,0,0,0,4.2-4.45V4.45A4.33,4.33,0,0,0,583,0H286.86C139.05,0,47.23,77.85,47.23,203.18c0,79.32,38.6,141.69,104.43,170.9a4.48,4.48,0,0,1-.27,8.23C76.45,408.29,0,480.33,0,564.94,0,696.36,93.8,778,244.81,778ZM161.25,373.8c-.07-1.77-2.36-4.3-3.88-5-65.58-31.57-104-82-104-165.59,0-121.56,89.67-197.07,234-197.07H578a4.33,4.33,0,0,1,4.21,4.45V767.45A4.33,4.33,0,0,1,578,771.9H245.32c-149.79,0-239.21-77.37-239.21-207,0-89.77,73.74-143,147.06-175.88l.31-.1,4-1.2c1.87-.56,3.85-2.82,3.85-8.22Zm136.4,257.76H434.79a4.66,4.66,0,0,0,4.45-4.85V438.37a4.66,4.66,0,0,0-4.45-4.84h-135c-65.25,0-104.21,37.7-104.21,100.86C195.63,597.05,231.86,631.56,297.65,631.56Zm135.48-11.7a4.66,4.66,0,0,1-4.44,4.84h-131c-61.85,0-95.91-32.07-95.91-90.31,0-58.87,36.67-94,98.1-94H428.69a4.66,4.66,0,0,1,4.44,4.84ZM330,293.28H434.79a4.45,4.45,0,0,0,4.45-4.45V148.53a4.45,4.45,0,0,0-4.45-4.45H330c-55.09,0-85.42,26.67-85.42,75.09C244.62,267,275,293.28,330,293.28ZM434,283.4a4.45,4.45,0,0,1-4.45,4.45H330c-52.42,0-80.13-23.75-80.13-68.68s28.46-69.66,80.13-69.66h99.47A4.45,4.45,0,0,1,434,154Z"/><line class="cls-3" x1="434.79" y1="146.79" x2="581.97" y2="146.79"/><line class="cls-3" x1="434.79" y1="290.75" x2="581.97" y2="290.75"/><line class="cls-3" x1="434.79" y1="436.33" x2="581.97" y2="436.33"/></g></svg>