<?xml version="1.0" encoding="utf-8"?>
<!-- Generator: Adobe Illustrator 24.3.0, SVG Export Plug-In . SVG Version: 6.00 Build 0)  -->
<svg version="1.1" id="Layer_1" xmlns="http://www.w3.org/2000/svg" xmlns:xlink="http://www.w3.org/1999/xlink" x="0px" y="0px"
	 viewBox="0 0 872.5 779" style="enable-background:new 0 0 872.5 779;" xml:space="preserve">
<style type="text/css">
	.st0{fill:#C9C9C9;}
	.st1{fill:#FFFFFF;}
</style>
<g id="Group_1" transform="translate(-201.5 -393.806)">
	<g id="Path_1">
		<path class="st0" d="M1042.2,424.8v89.6H792.6c-19.3,0-34.9,15.7-34.9,34.9v128.6c0,19.3,15.7,34.9,34.9,34.9h152.6v91H792.6
			c-19.2,0-34.9,15.7-34.9,34.9v304H665v-718H1042.2 M1067.3,394.8H639.9c-2.7,0-4.9,2.2-4.9,4.9v768.2c0,2.7,2.2,4.9,4.9,4.9h142.9
			c2.7,0,4.9-2.2,4.9-4.9V838.8c0-2.7,2.2-4.9,4.9-4.9h177.7c0,0,0,0,0,0c2.7,0,4.9-2.2,4.9-4.9V687.8c0-2.7-2.2-4.9-4.9-4.9H792.6
			c-2.7,0-4.9-2.2-4.9-4.9V549.3c0-2.7,2.2-4.9,4.9-4.9h274.7c2.7,0,4.9-2.2,4.9-4.9V399.7C1072.2,397,1070,394.8,1067.3,394.8
			L1067.3,394.8z"/>
	</g>
	<g id="Path_2">
		<path class="st1" d="M757.6,424.8v718H445.4c-66.7,0-121.8-17.2-159.2-49.9c-17.8-15.5-31.5-34.4-40.8-56.2
			c-9.7-22.7-14.6-48.6-14.6-77c0-40.2,21.7-72.9,39.9-93.3c24.2-27,57.4-49.3,91.2-61l0.5-0.2l0.5-0.2c8.3-3.2,14.9-9.5,18.7-17.5
			c8-17.2,0.6-37.8-16.7-45.8l-0.2-0.1l-0.2-0.1c-27.2-12.3-49.7-32.2-65.3-57.7c-15.5-25.4-23-54.6-21.5-84.4l0-0.8V598
			c0-26.8,4.8-51.2,14.1-72.6c9-20.6,22.3-38.5,39.6-53.1c36.6-31.1,90.4-47.5,155.7-47.5H757.6 M530.5,712.6h99.4h0.1h0.1l0.1,0
			c9.2-0.1,17.8-3.7,24.3-10.2c6.4-6.5,10-15.1,9.9-24.3V548.7c0-19-15.5-34.4-34.5-34.4h-99.4c-33.1,0-59.8,8.5-79.1,25.3
			c-14.1,12.3-31,35.2-31,74.3c0,39.3,16.8,61.9,30.9,74C470.4,704.3,497.1,712.6,530.5,712.6 M498.2,1049.5h131h0.7l0.7,0
			c18.7-0.8,33.4-16.5,33.1-35.1v-174c0.3-18.6-14.4-34.3-33.1-35.1l-0.7,0h-0.7H500.4c-38,0-70.1,11.5-92.8,33.3
			c-23,22.1-35.2,53.5-35.2,90.7c0,18,2.7,34.5,8.2,49.1c5.8,15.5,14.5,28.9,26,39.7c11.3,10.7,25.2,18.8,41.2,24.1
			C462.7,1047,479.7,1049.5,498.2,1049.5 M783.4,394.8h-296c-147.7,0-239.4,77.9-239.4,203.2c-3.7,73,37.7,140.8,104.4,170.9
			c2.2,1,3.2,3.7,2.2,5.9c-0.5,1-1.4,1.9-2.4,2.3c-74.9,26-151.3,98-151.3,182.6c-0.1,131.5,93.7,213.1,244.6,213.1h338
			c2.4-0.1,4.3-2.1,4.2-4.4c0,0,0,0,0,0V399.3C787.7,396.9,785.8,394.9,783.4,394.8L783.4,394.8L783.4,394.8z M530.5,682.6
			c-52.4,0-80.1-23.7-80.1-68.7c0-44.9,28.4-69.7,80.1-69.7h99.4c0,0,0,0,0,0c2.5,0,4.5,2,4.5,4.4c0,0,0,0,0,0v129.5
			c0,2.4-2,4.4-4.4,4.5c0,0,0,0-0.1,0H530.5L530.5,682.6z M498.2,1019.5c-61.8,0-95.9-32.1-95.9-90.3c0-58.9,36.6-94,98-94h128.8
			c2.6,0.1,4.6,2.3,4.5,4.8v174.6c0.1,2.6-1.9,4.7-4.5,4.8H498.2L498.2,1019.5z"/>
	</g>
</g>
</svg>
